/* XPM */
static char *_a228001c91f4b95eba63d0276094d42eCCtGnHxdukQ8BvN[] = {
/* columns rows colors chars-per-pixel */
"128 128 82 1 ",
"  c #362E00",
". c #382E00",
"X c #363100",
"o c #3A3300",
"O c #3E3900",
"+ c #403700",
"@ c #423C00",
"# c #483F00",
"$ c #464100",
"% c #4A4400",
"& c #4E4A00",
"* c #524D00",
"= c #4F5000",
"- c #555200",
"; c #5A5500",
": c #5D5A00",
"> c #615D00",
", c #5F6000",
"< c #656200",
"1 c #696600",
"2 c #666A00",
"3 c #6D6B00",
"4 c #716E00",
"5 c #6F7000",
"6 c #767400",
"7 c #797500",
"8 c #777900",
"9 c #7C7B00",
"0 c #817E00",
"q c #7F8100",
"w c #848300",
"e c #898600",
"r c #868800",
"t c #8E8E00",
"y c #918E00",
"u c #8E9000",
"i c #939300",
"p c #999600",
"a c #979800",
"s c #989900",
"d c #9C9A00",
"f c #9B9C00",
"g c #9D9D00",
"h c #A09B00",
"j c #A19D00",
"k c #A39D00",
"l c #9EA000",
"z c #9FA000",
"x c #A1A100",
"c c #A3A100",
"v c #A3A300",
"b c #A6A500",
"n c #A4A600",
"m c #A9A400",
"M c #A9A600",
"N c #ACA700",
"B c #A7A900",
"V c #ABA900",
"C c #ADAB00",
"Z c #ACAC00",
"A c #B1AD00",
"S c #B7AE00",
"D c #AEB000",
"F c #B0B000",
"G c #B4B100",
"H c #B5B400",
"J c #B9B500",
"K c #B8B600",
"L c #B7B800",
"P c #BBB900",
"I c #BCBA00",
"U c #BEBA00",
"Y c #BFBD00",
"T c #C1BB00",
"R c #C3BD00",
"E c #C1C000",
"W c #C5C200",
"Q c #C6C500",
"! c #C9C400",
"~ c #CBC500",
"^ c #CEC600",
"/ c #C9C800",
/* pixels */
"tteiiii96-O6diiiiiiiiiiiiiitttttttttttttiiaiiit96O6UggPjggg9BggggVxggggggsbiiiiia06o:6t!GgggfebggggggggggxjggggggfffggggaGjiiiii",
"tttiiiiw6%<eaaiiiiiiiiiiiitttttttttutttiaatttti96$6NShgggggsxgggggggggggfaVsiiiiii6X<9Y!xggggazfsssssffffaMggggggaggggggfaiiiiii",
"tiiiiiiw6%aiasaiiiiiiiiiittttittttuutiaaitttttt06O4TGMiiaaaaassssfffggffpidFiiiiit6X1x^Ggggggggaiiiiiiiit6xpaaaaawidpaaaiiiiiiii",
"eiiiiii93&dweiaiiiiiiiitttaaiittttuuttttttttteye6o%iSpiiiiiiiiiiiiiaaaaaiijFiiiiit4 9!Tggfggggfiiiiiiiait9Saiiiiiigiidsiiiiiiiii",
"eedsiii6>;fe0aiiiiiiittttaitttttttttttttttttteye1XX*txCMpiiiiiiiiiiiiiiiiixaiiiafe<Xw/KexggggfaiigaiiiteigpiiiiiiiihPNiiiiiiiiii",
"e0txiiw6-<stetttttit0tttiittttttiasaaitttt0teew6%XXX$379tssiittiiiiiiiiiiiiiiii0x9*O0/Gsgggggfaii9ViitwiiiidjjdppjHHpiiiiiiiiiii",
"tigiie76%3sttttttttettttttytyiaateeeeeeew96311<%XXXXXX%->16w96779etitw0iiiiiiiiea6O$7QHggggggfiii7MiiiiiipgaiidMCVsiiteiiiiiiiii",
"tiit9661X6aaaitttttttttitiiaat066661>;*%@OooO@@@$$%%XO@OXXXO%*;<36666*;699999999e-X-6UEggfxggsiiieMiiiiiiiiiiiiiiteewwiiiiiiiiii",
"tie6666@.69wetttiiiitrw3ee961>;&$OXX-:<3467767677999*6666631<>;-*&**$oX$*-:::::;*XX<6CRgf9abgaiiiiiiiiiiiiiiiiiiiiiit9xiiiiiiiii",
"e96666&XX*3666799w0763>X$%OXXXXXXXX;66ebCCCCCCACCVMbypbVCCMxdatew99666641<:;-&$OXXX>6qKKxwgMgaiiiiiiiitpiiiiiiiiiiiiiaaiiet99iii",
"46666-XXXXXo$&*--*%@X XXXoooXXXXXXO*6tCMMMMMMMMMbMMMMMMMbMMMMNVVVVbxsebxae966666@XX&667ySUAxCxe9weeeettyttttttteeeww0990097677ww",
"3<-@XXXXXXXo@$%&-;><34466666661@XX-6eCbMMMjMMMMMMMMMMMMMMMMMMbbMMbbbbbbbbbMxaiw6-XXX366660dCy666666666667776666666666666666<6666",
"@%&--:><3699900wwwew0670eeeeee73XX<7VCMMMbyMMMMMMMixMMMMMMMbxaMMMMMMMMMMbbbbbba6;XO##66676666*;666666666666666643311<>>:;;*X*--*",
"36669eydbCCCCNNNNCCCC9wiiiiiiie7:X*7hVMMMMMMMMMMMbwxMMMMMMbbseMMMMjjMMMMbbVCMba6;$66%#<311<<;XX---*&&%%#@OOoXXXXXXXXXXX$-;:<4666",
"sgxVMxbVgpiiiiiiiiiiiiiiiitaitte6%X39VddjxbbbMMMMMMMMbbbbbbbbMbbbbtijjgddgdpdie6;36-XXXXXXXoooO@@@$$%&&&*****----XXXXo<669txACCC",
"isaiiiiiaaaiiiiaaiiiiiiiiiteittte4o$6eCsiiaasgjjxxbxxxxexgssspaaiiesiiiiiiiiii76&o#*:13466666799999667wwwwwww0009@XX@36whCbhbpps",
"eiiiiiiiiisiiiiwsiiiiiiiiiiitttte6XX<6tCjiiiiiiiiiiiiiitiiiiiiiiiiiiiiiiiiiii963o<66eiaaaaasfsapppai9eiiiiiiiiiii-X@3ebVhiisaiii",
"tiiiiiabgfaiiiieeaiiiiiiiittttte74>&O669jxaiiiiiaiiiiiiiiiiiiiiiiipsggsiew09674@.36esaiiiiiaaaiiiiiiitiiiiiitiiii<X<wbaiiiiaiiii",
"eaaiiaBaaiiiiiiiiiiiiaiiitttttttew06@-69CMssaiiiiiiiieiiiiiiapgxbgpte9666>666<@X.16iaiiiiiiiiiiiiiiiiiiiiiii9aiit<X<tsiiiiiittii",
"teaiizfiiiiiiiiaiiiaxdsaatittttttttw<O360xCgaaaiiitte69eisssatw9766631>;*X#OXXXXX<6isiiiiitiiiiiiiiiiiwaiiii0iii6OX<uaiiaiiiiwii",
"teiiiaiiiiiiiiiiiiigptttiaittttttatt7*%677wtttew9767666666631>;=&$@@#%&*-:<<1:#XXO4tssaaii9aiiiiiiiiiiiittttttt9*oX>ipi9fiiiiiii",
"tiaiiiiiiiasiiiiiitgptttttettttteett91X&><*66666663<>-*&%$%-<7wiw6weeetttiiiit9:X=6tsaaiii9aiiiiiiiiiiittttttte764X:0ji6siiiiiii",
"tiiiiiiii07xiiitttabyttttettttttttw76$XXXXXXo@%%&*-:16wibKWWUHCVHpggggddgggsbgsw%&6titiiiiiiiiiiiiiieatttttttttyw6@;0it7xiiiiiii",
"tiiiiiiii07xtttttsxittte0etttttte96<@XXXXXXXO6AUUYRWQ/QUAbggggggggggggfagggtizgi:$7tpittttttttiiiiiititttttttwite6%-taiiaiiiiiii",
"tiiiiiitttiattttiattttewtttee964>&$;131>*OX&t!WGbxjjbVVMbxjgggfgggggggfggggs0Bga3O60afaite0utteetutttttttttte7att6**tgiiiiiiiiii",
"eitttttttttttttttttttttee9661;%$-160etiy9:O9WAzffggzgggggghgggeffgggggggggggfgft6O;<4699969te9666ettttttttttwwitt6;&9baiiiiiiiii",
"etttiytttttttttttttew9766<*&*<660euasaaie<X:PjggggptHjggggggggwBfgMACbggggggggt6&XXXXo$*:<363>*$;6wtttttutttyite96;X17iattittttt",
"ett0ittttttttttew97661:--<669wettiaaiiiit1;<wVggggi7xxggiaggggggzPGxggggaagggsaiw:XXX@oXXXXXXXXXX@<69weettttte966<@X30teit9stttt",
"etttttyypdzzat9663:-;16679wtttttiiiieiiit3;ftsgggggaDfggixggggggggggggggeffsaiiii3X&56663<:*%@XXXXXX$-166669763;@XX%6xsttt9ftiat",
"etiagxbxst0664<*@@>79wetiiiitttiiiii9aiit4-xggggggggffggggggggggggggxzggsaaiiiiii9@66eVFAAACxe>@X@*;-%@O%;<<-#XXXXX*6Cattttiszit",
"sbgie97664<*%&:3<6iasaaititttttiiiiiiiiii6-Vfasxgggggggggffgfggggggfexaaiiiiiabai9%66VCVMMMMVCe67ixgatw94>-&@XXXXXX*7Apytixgiyid",
"966666<-%%-167weewitttttttttttiiiiiiiiiit6-Affigggggggffgfgggfssaaaatiiiiiiiie7biw-<0FCCVVMbbbVgbbMMMMMMxsieq6<O*@X*9AAjxCMgbCSp",
"461;$@&>6669etttytittttttiitiiiiiiiiiiiiw6*Agfggggggggfsafaaaiiiiiiiiiiiiiiiiitaie:-9FCMbbbbbbMMMMMMMbbbbbpxbbx676o&9FAFFCVbdit0",
"$O%;3669etttttttttttiiiiiii99aiiiiiiitw96>&xxfgggfsaaaiiefiiiiiiiiiiiiiiiiiiiiphsw<#6CCMMMMMMMMMMMMMMbxMMMpxMMMxse&&7ttw0776661;",
">66669ettutt9tttiiiiiiiiiii00aiiiiiiie661X$iSggssaiiiiiiiiibpiipxMAANxhpppjxxbjy96<X6bMMMMbMMMMMMMMMMxtMMMMMMMMMMp<@6666663:&OO&",
"369wttututyu9iiiiiiiiiiiiiiiaiiiiiiiit6$XX$0Qbaiiiiiiiiiiit7biasdpigxxjgaie61>;&$OXX<sVMMMMMMMMbMMMMMMMMMMMMMMMbgi6O%11:&OX$;366",
"wttttttiiiiiiiiiiiiiiiiiiiiiiiiiitttye7*XXO9C!GdahbBgaiiiiityiiiw3%;3<:*%@OXXXXXXXXX*wCMMMMMMMb0sbMMMMMMbMMt9gxaii6&XXXO*>66699w",
"eteiiiiiiiiiiiiiiitwiittttttttttttttt93XXXX&6eK!^^WAMxjjsitw93<-&OXo%*-;;;%$:::;-*%X#6MddddgjxxabbbbbbbbbMx96wMiii7*XX;69wettutu",
"eiwiiiiiiaiiiiiiiietttiitttttiaaaitte6&@33@X@:6eiyte94<:*$OXXXXXXXo4ixxxxgy49ttww96;X4yxaaiiiiiiapsggzxxgpiw6exiiw6@X:6etetttttt",
"isasssaiiatiiiiitttttteesaiasieeeeew6<X>651@XX&&%@XXXO$%*;:<36:$XX@0Apiiiagbgiiiiit6#:7bxwiiiiiiiiitiiiiiiiitsiy96<.:69ettaassss",
"wisaaaaasi6epppiiitte9769ee966663<<;;oXXXXXXXO@%*OX;69etasxbbbf61$#wSpaaiiiiiiiiiii91@676eiiiiiiiiu0siitiiiiiie774@#466676666770",
"466wtafft>&16997766633<>:;-*&%@@XXXXXXo@%*>6wtaaa6@6sbbVACMMbMba76O6MCCjaiiiiaiiiite7$&66tgaaiiiiiiaie969tiie9661OXXXO%*;>166666",
"****&&&%@XXXo@$@OO@$%%&&**--;::><<1367wtdVCCVbbbbxe9bMMMMMMbagbbt6&#0Apiiiiiwsiiiyye7;X;66tgxbbBbbde64666797666;XXO@@@OXXXXXo@&-",
"%&&&&&&***%XXXXXX;7790wwetyiasdjxbVCCCCCMMMMMMMMMMMxMMMMMMMMbMMMb0<@7Matttttttyyyyy06&XX:66667667666:&66*<666<*-169weee9#X:63<:*",
"46766676776:XXXX:aCAAAAAAACCCCCCNMMMMMMMMMMMMMMMMMMMMMMMMMMMMMMMMs5O6esttttttuttttt9:XXXX;1111<>:;-*OX@@XXX$;6riawafaassq>7iie96",
"eiasaaiiiie6%XX:xACVMMMMMCMMVVVVCVVVbMMMbMMMbMMMMVVMMMMMMbMMMMMMMg6@<6tttte969990w6*XO%&****---;;--*&@XXX@<0isspssaaaaiit6wiiiii",
"tisaasiiiii91X$jAMbixMMMMMbVMMMMVCVMMMMMMMMbaMMVCbbwdMMMMf0VMMMMMg3X&667006<;63:*@%;6667etaaassaae66w6>oX-9saiiiiiiiiiiii9iiiiii",
"taaiiiaiiiit6$:CVMp6tNMMMMMVMMMbjMMMbpsMMbMitMMCMMMwpMMMMa7jMMMMCs1%X;6664<$XoO*<wifdst9tasiiiiiit9eii9<X%waiiiiiiiiiieiiiiiiiia",
"taaiiiiiiiiu6$4CMMd7dMMMMMMMMMMMyMMMx67CbMMgbbMVbbbMMMMMMa7jMMbMby66XXo@OXX#-3wisaaiiiaataiiiiiiiiiiiii9O#wiiiiiiiiiiieaiiiiiiai",
"e9eaiiiiiiyy9O9ANMMMMMMMMMMMMMMMbMMMx60Vgfsaaisaiapsdhjxxg9Mxjgxai76@XXO&:60taaiiiiiiiii7eaiiiiiiiiiiii9#O9taiitiiiiiiaiiiiiiaai",
"te6iiiiiiyyt6@wCAVMbMMMMMMMMMMMMMbVbjaxaiiiiiiiiiiiiiiiiiisaiiaaii07*XX39eaaaiiiiiaiiiii9taiiiiiiiiiiit9%X<6iiiiiiiiiiiittttuiii",
"ey9tiuuutte9:$iCxbbMMMMMMMMMMxxbbxaiiiiiiiiiiiiiiiiiiiiiiiiiiiiiiie7>X*9asiiiiiit7eaiiiiiiiiiiiwaiiiiit9&O1tiiiiiiiittttttttuuuu",
"ettittttte63$&aNpsxVCCCCCCbbbbxsiiiiiiiiiiiiiiiiiiiiiiiiiiiiiiiiiit63X1tafiiiiiie6eaiiiiiiiiiiitiiiiiit9&@wiiiiiiitttttttiittttu",
"ettttttttte6*&eCCCMCCMxjgjgsaiiiiiiiaiiiiiiiiiiiiiitaiiiiiiiiiiiit063X>esaeiiiiiieaaiiiiiiiiiiiiiiiiitt9*Owpiiiiitt9iuttaitttttt",
"ettttttttt06#X179wMgiiiiiiiiisgsaiitaiiiiiiiiiiiiiiiiiiiiiiiiiiy066<OX#9siiiiiiaaiiiiiiiitaiiiiiiiitt9i9*X6faiiiaitettisittttttt",
"ettttttttt96X&$:-6pAVxsiiipxCxaiiiiiiiiieaiiiieiiiiisgxxgpiiitw661%X@XX<iiiiiiasittttiiii9iiiiiiittttwi7*X>etaaiiiaaiaaitttttttt",
"ettttttew96:X;;X&60pbCAAMCAjiiittiiiiiiiaiiiiiiaipjCbsytigst0663&XX>6>X@eaiiasatttttttttyyyytttttttetyt7&Xo*>67weuafse0tttttt9it",
"eeew9661:&O.XX%X@36690eigste096660tttiiiiiiiiipxbfe76666666663*XXX*666OX:issaitiiiaaaaassspiuteeeww96996#XXXXX$-<469639tttteeety",
"361:*#OX%:11:&@XXo%*;>136666663<6666tiiiiiaaaat063<:;:441<;&@XXXXX%>13*XX3wttte7etteeww0999666666631<:*%XXXXXXXXXX@**X3996669e09",
"OXXX*36;9R!UCdt9<;%OXXXXXO@%*#X;1466699997663>-%OXXXXXXXXXXXXXXXXXXXXXXXXO<11111<<<>>:;;-*&&%#@oXXXXXXXXX XXXXXXXXXXXXX$->133<-&",
"*-XX4xdepTGRWEQ^Txy96>#XXXXXXXXXXXXO$&-::*$OXXXXXXXXXXXXoXX@#$%%&**--;;;----**&&%OXXX XXXXXXXXX%--o&:1446664<--4764111<*@O@@#%%&",
"66%X7KggjVggZCjxMAKUUAd0<;&%@oXXXXXXXXXXXXXXXO&-;:<136900<-6etttw76669eipppsdgjgj7*661>:-&@oXXO7Ma&6xCFCCVbbttNCCVVVbxy66666679w",
"t7&o0KfgiwbggxFbgffsgjVHHbi096633333333<@XXX;9tsgiebzgsait9tiiiagVbbCCbxspaaiiwait6tiite9666>X#eMb9zesbbMMMMCCMbMMbMMbxe0wewtjMM",
"i6#orTffesggggggxgfewCgggfgggfssuwiiafft*XX>tAAxiiaaiiiiiiiiiiiaiidhpiiiiiiiiiwfiieiiaiieuie6o%aMbgb7jMMxMMMMMMMMMMMMMMbbMhaMMMM",
"6*XOq^HgaMgggggxxggaxxgggggggggsafggfxgi-X$wAAdiiiiiiietiiiiiifaiiiiaiiiiiiiiiaiiiiiieiiiiit6$&aVMMbpMMbwpMMMMMMMMMxtMMMxiMMMMMx",
">;*X6x!FgggggjCMgggggggggggggggfggggexft;X%ySxiiiiiiiiwiisiiaxaiiit0aiiiiiiiiiiiiiiiitiiiiii6&%9ZVbbMMMMjxMMMMbMMMMawMMMxgbMMMbe",
"w9>.:7YYggggMHjgggggggggggggfgggggggixft:X@wAMiiiwsiiiiiwtaibsiiiiieaiiiiiiiiiiiiiiiiiiiiiii6-X<wCCMMMMMMMMMbtwVMMMdhMMMMMMMMMji",
"ee>X;7WFsddxUjgffggggggggfggabggggffssa7&Xo6iAaii9aiiiiie9gaBiiiiiiiiiiiiitesiiiiiiiiiiiiiii6-X6CSACVMMMMMMMbe7VMMbVbVMMMMMMbxxh",
"te>X;0QgadhKxggiiggggfgfsggg7Bssaaaiii9>XXX%wCbiiiaiasiiiesisiiitiiiiiiiit96isiiiiiiieiiiitt6;&sCMMbMMMMMMMMMjjMMMCCxbgdptspaiii",
"tt<X;e!piipAgggixgggffffwxaa9xiiiiiii099<XX>VMbaiiipVaiiiiiiiit9ttttttttte66txttttttttttttit6;&sAMMMjjMMMxxMMxjdpddazaiiteiiiiii",
"et<X:t!Aaiiaaaaaaaaaiiiiaaiiasiiiiaaitit1XX:MxisiiaMaiiiiiittttttttttttttt69bpttttttttttt9at7;%iAMMMtxMMMaediiiiiaiiiiiiiaaiiiii",
"t0> <tYjAaiuiiiiiiiiiiiiiiiiiiiiii0ziiie1XX*dMiiiiisaiitttttttttitttttttttugdttttttttttttiit6&#wACMMjMMMMaeaiiiiiiiittiiiiiiiiti",
"w6>X19KFpzaiiiiiiiitsiiiiiiiiiiiiiaiiiie1XX%iAiisiiaittttattttt9attatttttttytttttttewwwyttt93X@6gAVMbMMMxiaiiiiitaiteiiiiieeiiew",
"46-X%67pHhaiiizpiii9giiiiiiiiiiiiiiiite9<XX#wFxyaatittttetttttttattixyyyttttygpyyytttttytt96%Xo69xxgsaiiiiiiiiiittiiiiiiti769tt9",
"*#X@X$367sxiiiiRVpiydpppppi09wettew9666>#XXO5aAxwBittttttttttttttettiMppsxxattxVsapjbVztw96<XXX%:2666666eiiiiitwiaiiiiit996;1661",
" X*61@O:669aai9eE!ERUUUPGMy6:>66661:-$XXXXXX%6iC6abitttttiittyytt9ww6agptw76669esggpt966666@XXXXXXXO#%%<666666666666666666:XX@XX",
" X3664@X#<66994<9ww097766643%XX%@X@;>146663*X$6t19FAxaasxACVxxgiw16<666631<>146666666643<:%XXO@$%@XXXXXo-:><133344431>-&@XXXXXXX",
"XOOO%%OXXX@&**#O-;;;--*&$OXX XXO#:wbZCZZVbsi>X@31:gAFFFFVdtwe9664*-X@%OOoXXXXXXXXOOXXXXX@;<369w9966<;OXXXXXXXXXXXXXXXXXXXXXXoOOO",
"qee96<:-&XXOoXXXXXXXXXXXX@;,4900egASCMbMMMMMi->@;&9pgst07663<;&OO@&->39w9OXXXXXXXO@%*;>170tgVCCCCVxt6@:3:%oXXXXX*133466699<&99ww",
"taaaaaae7&-w963<:;*&#OXXX;iCFFAACbbbMjMMMMMMx9ta&o466666>&OO$&o;6wetiiiiw*XX%;<47wttgx6eCCMMMMMMMMMe66asie7:XXX%6tsaaiaaiie6isaa",
"tiaiiiiie6eiiiiteew9964:X;CACVMMMMMMbpMMMMMxbigMg<#><;$@&:6eai96tiiiaaiie:X*6edMVMw6jx9ZMbMbydMbMMb99dMMMx7>XXX-7ssasaiitiiwiaii",
"twtiiiiiiwiwiiiiiwiiiii6X;CMbbMMMMMMMMbMMtbxMbbMMx6@X@1eypppapaeiiiaiiit9%*6yCMbbg66pjgVbMMbdMxxMMjuxMMMMe6@XX-3wdsiiaiieiiipaii",
"tiiiiiiiiir60aiii9waiiy6O*xCMMMbMMMjxbMMb0bMMMMVMMe;@6asaiiiiiiiitiiiie9>&6wCbMMMx60CVVMMMMMMbgtbMMMMMMMd6;XX-69ssaiiiiiiiiiaaii",
"tiiiiiiiiie6eaiiie9aii9*.@0xVMMyhMsiiasggbbMVMVbxa0-;usiiiiiiiiietiiiyw1%6wVMMMMMbxVMMMMMVMMMMbsbMMMMMMb94oX%69saiiiiiiiiiiiaaii",
"tiiiiiiiiiitpaaiiitii9<<*%6igMMdbgiiiiiiipMbdxzsii7%1aittttetttiiiittw1@3eCMMMMMMMMxxxMCVMMMMMMMMMMMMMbi6*XO47isiiiiiiaaaiiiiiii",
"riiwiiiiiiiiisaaiiiiitiw:%wCMMMMxaiii9siidpiiiiiiw6O6ittte7669etteew9<o<0CCVMMbbMMaiiixjhxxMMMMMMMxjjdp71XX:69iaiiiiiiiaaiiitttt",
"etttttiiiiiiaaiiiiiiiiie>@wCMMMxatyjsiiipdjxxxgi96<#69we93*-1<<:;;-*&X%9VMMMMMVVbgiiiiiiiiipdhddpiiiiiw6#XX-17eetitttttttttttttt",
"ettttttttttisiitiiiiaaae<X6CVxdiie64xCCCxpiie9643<@X#@OoXO@%*;;*$oXXXX&iCMbMMMCbfeiiiiiiiiiiiiiiitaiit6:XX;6esie6wattttettttewet",
"euttteettttsatt9aiiasiie1X10idsiw66@@471>;-&$OXXXXO#&-:1469weeew96:XXX$tAbMMMMCbawaiiiiiiwaiiiii0eaii96oX&6isiyw69atttt0tttewttt",
"eutttwetttiaitt9ittiiiie3X%:::;-*&%XXXOOXXX@%*;>36999wetiiiiiiiiie6*XX@9aexMMMbjiiiiiiiiiiiiiiiitaiie6-XO4wgittt9eittttttttttttt",
"ettttttttiiitttttttutiie6X XXXXX@&;>39w613wisssssssfssaiiiiiiiiiii73XXX6:ibbMMxpiiiiiiiiiiiiiiiiiiit9:XX-6tfititttttttttttttttit",
"etyttttiiittttttttttutte6XXX%;1690etiiiteaaeiiiiiiaaiiiiiiiiiiiiee96*XXX1NMbbgpiiiisgsiiiiiitiiiiie6<XXX:69sfsaiitttttttttttttti",
"eiyttttuitttttttttttttte6o*69taaaaiiiaaaaii7eaiiiiiiiiiiw9aittttte73;XX#pMxgaisaiaxxaiaaaaii99ete96;XXXXo<69weee0777eaaaiiitttte",
"6taiiiuutttttettttttttew6O10fgsa0tiiiiiiiiitiiiiiiiiiittw9attttteyt9<@X;eMiiiitfbVxpjVCMgiw966666<%XXXXXXX;66333461>679990wwweee",
"36wttiaaiitte6wttttwite76O1egsiawiiiiiiiiiiiiiittttttttttittttttwyyt6<X*6Zsiiie6pCCbse976661:-&@XXXXXXXXXXXXXXXXXXXX@%**;:><1366",
"X@#&-;<60ettw>60tttwttt96O<wgsiiiaaitttetttttttttttttttttttttttttyyt76O$6yhye97>39741>-*$OXXXXXXO#&-;-*%OXXXXXXXXXXXXoXXXXXXXXXX",
";;;--$XXX@&->&:6679weee96o:6fgaafituttt0ettiiiittt9ittttttttteettttw66-o46431<:@O@XXXXXXXo@%-:16689we99766>*XXXXo%;166999976311<",
"taaiw6$XXXXXXXXO#*:<36666X*6eaaai960tttttteew7taaassaaaaaitre969976666:XXXXXXXXXXXXX#&;<490etiagxVZxpiiite071XX:6isassssspaii9aa",
"tiiii91XX@*;X-:;;-*#.O#*-X$6666663-166666666666999976666666666666661;%XXXXXXXX@&:1&:0ajbxxxxxxxxgsiiiiiiiiie6O%67saiiiaasaiiiiai",
"tiii93@X%9gs34VMBbs9;%@oXXXooOOOOXXXOOOO+#OOOOOOOOOOOOOOOOOOO@@#@OXXXXXXXO*:9issait9CVbxsaaiiiiiiiiiiiiiaiit6#*66tfsaatiiiiiiiaw",
"tiiite7;@wVit0diiiiawew0966431>-**&$@X.O16&$390964311<<<<*X-::;--*&%$OXXX:0MVaiiiiihhiiasaiiiiiiiiiiiii9aiii6%@#>esaiiteiiiiiiie",
"eiiiiit6O3zaiiaiiiaxxsssdgxgfsawiitee6$<6<&6igdgdsssaaitt9<0ssite99666#XX;7xAxgaiiigiiiiiiiiiiitaiiiiit7giii6%O16aaiiiiiiiiiiiii",
"tieaiii9&>rxiiiiiiiiiiiiiiitiiiiiiiii9;@@#7asaiasaiiiiiiii9aaiiiiiite6:XX&69jACsiiaaiiiiwsiiiiiwaiiiiiiaaiii6%$67fatettttttettii",
"eewiiiie>&9Cfittttttttiiiii9wfiiiiiiiw<Xo3asiiiiiaaaaiiiiiaiiiii0aiiie6oX@33jM0siiiiiiiiaiiiiiiaiiiiiiiiiiit6#O66isittiiitt6eitt",
"eeiiiiit6@6xyuuitttettttttieaaiiiiiiie6X$0giiitwiiiiaiiiiiaiiiit7aiiii6&XX@9Cawaiiiiiiiiiiiiiaiiiiaaiiiiittt6OX367wuiiteaaieittt",
"ettttiii6$<fyuuyttutttttttttiiiiiii9st6@%waiiiteiiiiiiiiiiiiiiit9aiiue61XX-0AaiaiiiiiiiiaiiiisBxaaatttttttt0;XX$<6667ww69wiaittt",
"rtee79ti9;&txiuisattttttttttttiiiiiei96&%waaiiiiiiiiiiiieeiiiiiitiie766>XX$6bjiiiiiiiiieaiiiiiiafatttttw0963XXXX.X$-<4633669eiui",
"66666;666>X1esi96gVdaiiiaaitttttiiiii76*%799eiiiiiiiiiiitiiiiiiiiiiiiw63OXX4tCiiiiiiiii9sittttttttttttt9666%O<631>-%@OOXXO&:36ww",
"-;;;*X@;*#XXO#&#O<wyiaappdxgyyttttiii77%@<:6uiiiiiiiiiiiiiiiiiiiiiiiutt9<XX:9xgiiiiiittiittttttttttttyye76OO39sfaite964<:&@XXO&;",
"X@$%%$#@X OOOXXXXXXXO#&-:<169766990w06>XXO6iiaiiiiiiiiiittitttttttttttew6%X$6tViitttttttissaiyyyyytitttw63X<9xbMMMMbbxa9xpe5>%XX",
";ijjjgpi7:0tte6:@XXXXO*&%$@OO@$&*;:><;XXX1tsaiittaiittteettttttttttttttt0>XX39batsatttttttagVCMjiyeiii966%&0egMMMMMbbbMxMMbxp9#X",
"9MMxxMMMMgbMMbbjt;O98:eiteeeew961:-&oXXXX6iiiiie9atttttetttttttttttttttte6oX*6tVCbtttttittttwegCAMxxi766;X:gbbbMMbbbMbbbbxxxxt&X",
"9bMjjMbixbbdjxjdp6%uaiiiiiaaaaiiieye1XXXX4tittttttttttttttttttttttttttttt6*Xo67xg96wtyeytttt9667ett7666:XX*eppaaaywiiiiiiiiiie;O",
"tCCVMMbixgseiiiii6&aaiiiieiiiettyyyyw-XXX3eitttiaittttttttttiiiittttttett9<XX-67666tMMbMxgsaw6666661;&OXXX$6ww000969weetiiiie7>@",
"39wtyiiiiiiiaiiie6%waspaiyttttyyyttyt4XXX>7iiittttssaaaaassssasfaittete0e76OXX%>46;9gayte09964X#&#XXXXXXXXXo#%&*;:<136666697661O",
"X#*:1469eiiiytt963.*6wissaee09werwq964XXX:67799w967wtiayew997679eiit99te661XXXXXXo#:<3663>;&#OOOOOOOOOOOOooooXXXXXXXXXXO#&*-:><X",
"&**&O%%%*:<16661;OXX+:1<>>:;--*&%$@OOXXX.X&;><1133333466666666666679661664@XXo$OoX.XXXXXX*19te9766666666666664O>643331<<<<::;;;-",
"4661:66;XXXXXoXXXXo@##X$&&*-;><111<-X->>>:-%XXXXXXXXXXXXXoO@@$%&**-;::@31@XXO56663<:@XXo<0S!!^!EKCdwe976666666<66666666666666677",
"te439ti6<oXXX%-16wrtte*6eiasaaaiiiie9aate9666:@XXXXO%->11<<:-*&oXOOoXXXXXXXXX%-36766&Xo19RWAAAAbAY!!^!WPFMjpyyeetyippsdjjxxxxjjg",
"ae60sgge6<XO3easppaaai90aaiiiiiiiiiaaaiiiaie096:XX-iHGU!KAACCCMt$6ew0963<:-&$OXX*161XXX:6GAfggggggxK!TKSAAAGGHKHLHHGAAVMbxgggggg",
"atefgggp76*>saiiiiiiiittiiaaiiiiiiiiiiiiiiiiiiy9$X6EjgyMMCVxgggje9fgggffgsaite9*XX@oXXO%:0MgdggggggggbCAKHGGDVgggfffffgggfffgggg",
"atBgggggw6;9faitwiiiiiiiiiaiiiiiiiiiiiiiiiaiiii9*X0Rggtaggfggfggdifgggggsxfggggi6%XXX369ixGKCgggggggggggggggggbggggfffffgfgggggg",
"iwxgggggt6-taaaweiiiiiiiiaaiiieraiiiiiiiasaaaiiw-X<Vgzzdggfgffggggfgggggwxgggggfsw-Xo6y^^^^^!RMggggsexgggfgggfggggxgggffgggggggg",
"iabgggggi6*aaiiuaiiiiiiiaaiiie66aaiiiiiiiiiiiiie>X@dKKAMxgfgggggggfggggg9xgggggggg6X@6p^^QSMggggggfazgggfwxVgggggMPggggggUxggggg",
"iggggfggt6-faiiiiiiiiiiasiiiie66aaiiiiiiiiiiiiie>XeKggfgggggggfgggggggggtVgggggggg8@%6e/!Hgggfgafggggggga6wHdggfjRxggggs6tKgggfs",
"taasffde66;gaiiiiieiiiiaaiiiiiwtsiiiii0tiiiiiiit<XiGgggggggggggggggxMVbggggaasgggf9@&69P!VghggaixggggggggexbggggKFfggggs67Ygfsai",
"tiiiaa96<@<faiiiiiiiiiiaaiiiiiaaiiiiii7aiiiiiiie1XeSfggbggggggggggMTBgggggxaiisggt9@$46E^xghggeetagggggggghjgjxSWgfggggf67Ugsiii",
"titiiie64@<ssiiiiiiiiiiiiiiiiiiiiiiiiitaiiaiiiie3XwGfgxVgggtbggggjTjggggggziiiasa76OX*6U!jggggggfgggggggggKTKUUUCffggggf70Psiiii"
};
